<?xml version="1.0" encoding="utf-8"?>
<!-- Generator: Adobe Illustrator 21.0.0, SVG Export Plug-In . SVG Version: 6.00 Build 0)  -->
<svg version="1.1" id="Layer_1" xmlns="http://www.w3.org/2000/svg" xmlns:xlink="http://www.w3.org/1999/xlink" x="0px" y="0px"
	 viewBox="0 0 450 475" style="enable-background:new 0 0 450 475;" xml:space="preserve">
<style type="text/css">
	.st0{font-family:'KingsBureauGrot-ThreeSeven';}
	.st1{font-size:64px;}
</style>
<g>
	<path d="M404.8,144.1c5.8-1.9,11.2-5,11.2-10.3c0-2.8-1.2-3.9-4-3.9c-3.2,0-6.6,2.5-8.6,4.5c-3.2,3.2-6.6,7.1-9.2,12.1
		C396.3,146.4,400.8,145.3,404.8,144.1 M410.5,161.8c-4,5.2-10.3,10.1-18.2,10.1c-6,0-9.5-4.3-9.5-9.8c0-17.1,18.9-35.1,31.4-35.1
		c4.3,0,7.4,1.6,7.4,6.2c0,6.7-5.9,10.3-16.3,13.4c-3.1,0.9-9.4,2.3-12.6,3c-1.4,2.3-3.3,6.9-3.3,10.5c0,4.9,2.5,7.7,6.9,7.7
		c5.1,0,10-4,12.8-7.1C410,159.8,411.2,161,410.5,161.8 M415.5,44.9c0.5,0,1-0.3,0.9-1l-1.8-12.8c-0.2-0.9-0.6-1.1-1-1.1
		c-0.3,0-0.7,0.2-1,0.8c-0.6,1.1-1.4,2.1-3,2.1c-2.9,0-5.5-2.1-12.3-2.1c-8.9,0-20.6,3.8-20.6,16.7c0,12.9,10.3,17.1,19.1,20.3
		c9.3,3.4,16.8,6,16.8,15.7c0,10.9-7.6,14.4-14.9,14.4c-8,0-17.4-3.8-20.8-16.5c-0.3-1-0.5-1.3-1.3-1.3c-0.7,0-1.1,0.5-1.1,1.6v16.3
		c0,1,0.4,1.4,1,1.4c0.4,0,0.8-0.3,1.1-0.8c0.7-0.9,1.4-1.8,3.2-1.8c3.6,0,7.9,4.4,18.3,4.4c9.1,0,24.6-2.9,24.6-20.9
		c0-7.1-3-16.3-20.3-21.1c-12.3-3.4-16.2-8.6-16.2-14.9c0-5.4,3.2-10.7,12.1-10.7c4.4,0,11.5,1.2,16.3,10.6
		C414.8,44.8,415.1,44.9,415.5,44.9 M362.8,41.7c-2.5,0-5.3-1.5-5.3-5.5c0-4.3,3.4-5.6,6-5.6c3.6,0,6.6,2.6,6.6,7
		c0,5-3.7,10.9-10.3,10.9c-0.7,0-1-0.5-1-0.9c0-0.5,0.3-0.8,0.7-0.9c4.5-0.9,6.2-3.7,6.3-5.6C365.4,41.4,364,41.7,362.8,41.7
		 M374.2,132.8c0,2.8-1,6.5-3.4,10.5c-4.5,7.2-8,8.7-11,8.7c-2.6,0-3.7-2.1-3.7-5.1c0-2.7,1.1-6.1,3.1-9.2c3-4.9,7.3-8.9,11.1-8.9
		C372.9,128.7,374.2,129.9,374.2,132.8 M353.4,189.3c-10.6,0-13.7-6.1-13.7-9.1c0-2.9,1.1-4.7,4-6.7c2-1.4,5-2.9,7.2-3.7
		c2.6,1.1,6.5,3.4,7.7,4.6c5.7,4,6.9,6.3,6.9,8.3C365.5,188.1,357.4,189.3,353.4,189.3 M386.6,131.1c1.1,0,2.2-0.6,2.2-2.6
		c0-1.7-1.6-2.3-3.1-2.3c-1.7,0-3.9,0.5-6.2,2c-0.6,0.5-2,1.1-2.9,0.6c-1.8-1.2-3.4-2.1-7.7-2.1c-4.3,0-10.6,2.6-14.6,8
		c-2.9,4-3.4,6.9-3.4,9.7c0,2.9,1.1,5,2,6.1c0.2,0.3,0.3,0.5,0.3,0.8c0,0.7-0.9,1.1-2.3,1.5c-2.6,0.9-6.9,3.3-6.9,7.7
		c0,2.9,2.3,5.6,4.9,7.3c0,0-5.2,1.4-9.4,3.7c-3.2,1.8-6.9,4.6-6.9,8.6c0,4.6,3.9,12,20,12c9.4,0,15.3-3.4,17.6-6c1.7-2,2-4.3,2-5.7
		c0-5.1-5.7-10-12-13.4c-4-2.3-9.9-5.1-9.9-9.1c0-1,0.3-2.2,1.4-2.9c0.8-0.6,2-0.9,3.3-0.9c1.8,0,4.1,0.6,5.7,0.6
		c5.1,0,12.1-1.7,16.4-10.9c1.1-2.6,1.6-5.1,1.6-7.3c0-2.9-0.5-3.5-0.5-4.9c0-1.1,1.1-1.8,3.3-1.8
		C384.8,129.8,384.8,131.1,386.6,131.1 M327.8,144.1c5.9-1.9,11.3-5,11.3-10.3c0-2.8-1.3-3.9-4-3.9c-3.3,0-6.6,2.5-8.6,4.5
		c-3.3,3.2-6.6,7.1-9.3,12.1C319.4,146.4,323.8,145.3,327.8,144.1 M333.5,161.8c-4,5.2-10.3,10.1-18.1,10.1c-6,0-9.6-4.3-9.6-9.8
		c0-17.1,18.9-35.1,31.4-35.1c4.3,0,7.4,1.6,7.4,6.2c0,6.7-5.8,10.3-16.3,13.4c-3,0.9-9.4,2.3-12.6,3c-1.4,2.3-3.2,6.9-3.2,10.5
		c0,4.9,2.4,7.7,6.9,7.7c5.1,0,10-4,12.7-7.1C332.9,159.8,334.2,161,333.5,161.8 M305.7,114.2c0,0.3-0.1,0.9-0.4,1.4
		c-7.7,16.8-15.3,33.4-22.8,50.2c-0.4,0.9-1.1,2.6-1.1,3.7c0,1.4,1,2.7,2.6,2.7c0.8,0,1.8-0.3,2.4-0.6c4.2-1.7,8.6-6.3,11.1-10.2
		c0.6-0.9-0.5-1.6-1.1-1c-1,1-4,4.9-7.1,6.7c-0.6,0.3-1.1,0.3-0.8-0.9l23.8-52.9c0.4-1,0.6-1.5,0.6-2.1c0-0.7-0.5-1-1.1-1
		c-1.1,0-2.5,0.3-4.2,0.5c-1.4,0.1-3.9,0.3-6.1,0.5c-0.6,0-0.9,0.6-0.9,1c0,0.6,0.5,0.9,1,0.9c1.1,0,2.3,0,3.5,0.3
		C305.6,113.5,305.7,113.8,305.7,114.2 M347.5,77.5c0-5,4.3-6.3,8-6.6c1.4-0.2,1.7-2.4-0.3-2.4h-28.9c-2,0-2.1,2.6-0.1,2.8
		c5.7,0.4,10.2,1.5,10.2,7v10.4c0,2.3-1.1,3.9-2.3,4.9c-5,4.2-11.4,4.5-15.1,4.5c-18.3,0-26.5-15.8-26.5-31.5
		c0-12.8,6.5-32.9,27.6-32.9c19,0,25.6,12.3,27.9,17c0.8,1.4,2.4,1.1,2.4,0V35.4c0-1.4-1.9-1.7-2.4,0c-0.4,1.7-1.4,2.9-2.9,2.9
		c-1.1,0-2.4-0.9-3-1.2c-5.7-3.6-11.1-6.5-22-6.5c-17.5,0-39.1,8.8-39.1,35.4c0,26.9,20.3,35.1,38,35.1c17.4,0,26.3-8.9,28.3-10
		L347.5,77.5L347.5,77.5z M284.4,114.2c0,0.3-0.1,0.9-0.4,1.4c-7.7,16.8-15.3,33.4-22.8,50.2c-0.4,0.9-1.1,2.6-1.1,3.7
		c0,1.4,1,2.7,2.6,2.7c0.8,0,1.8-0.3,2.4-0.6c4.2-1.7,8.6-6.3,11.1-10.2c0.6-0.9-0.5-1.6-1.1-1c-1,1-4,4.9-7.1,6.7
		c-0.6,0.3-1.1,0.3-0.8-0.9l23.8-52.9c0.4-1,0.6-1.5,0.6-2.1c0-0.7-0.5-1-1.1-1c-1.1,0-2.5,0.3-4.2,0.5c-1.4,0.1-3.9,0.3-6.1,0.5
		c-0.6,0-0.9,0.6-0.9,1c0,0.6,0.5,0.9,1,0.9c1.1,0,2.3,0,3.5,0.3C284.3,113.5,284.4,113.8,284.4,114.2 M250.5,128.5
		c-9,0-22,21.4-22,34.5c0,3.4,1.5,6,5.1,6c8.9,0,22.1-21.9,22.1-33.4C255.8,132.1,254.8,128.5,250.5,128.5 M248.6,125.8
		c9.1,0,10.9,8,10.9,15.4c0,11.8-10.9,30.7-24,30.7c-8.3,0-11.4-6.7-11.4-13.5C224.1,141.9,235.8,125.8,248.6,125.8 M202.7,30.5
		c-2,0-2,2.2-0.9,2.5c2.2,0.5,6.8,0.9,6.8,6.9c0.1,14.2,0.1,32.8-0.5,48c-0.1,5.4-1.7,10-6.4,10.6c-1.7,0.1-1.7,2.1-0.6,2.1h20.6
		c1.1,0,1.5-1.8,0.1-2.1c-3.1-0.6-8.3-0.6-8.7-10.5c-0.5-9.7-0.8-46.7-0.8-46.7L264,98.5h4.3c0,0,0-53.5,0.3-57.6
		c0.3-4.8,1.9-7.4,7-7.8c2.6-0.2,2.1-2.6,0.4-2.6h-21c-2.5,0-1.9,2.5-0.8,2.5c2.3,0.3,9.4,1.2,9.7,8.1c0.3,10,0.8,41,0.8,41
		l-45.9-51.6H202.7z M221.2,131.5c0.6,0,0.9-0.3,1.1-0.9l4.6-14.6c0.3-0.9-0.1-1.4-0.9-1.4c-0.3,0-0.7,0.1-1,0.4
		c-0.9,0.9-1.9,1.7-2.8,1.7c-0.5,0-0.9-0.3-1.3-0.7c-4.1-5-10.7-5.8-13.8-5.8c-14.6,0-27.1,9.5-34.6,21.2c-4.5,7-6.8,14.6-6.8,22.1
		c0,12,8.3,18.8,19.1,18.8c4.9,0,8.6-0.6,15.1-3.3c1.4-0.6,3.1-1.2,4-1.2c1.6,0,1.7,2.4,1.9,4.6c0,0.9,0.6,1.1,1.1,1.1
		c0.4,0,0.9-0.2,1.1-0.9l6.1-17.4c0.5-1.4-0.1-2-0.7-2c-0.9,0-1.3,0.4-2,1.5c-2.8,4.3-4.7,7.1-14.3,11.7c-4,1.9-8.7,3-12.4,3
		c-8.1,0-11.2-6.2-11.2-14c0-10.3,4.9-21,12.3-30c4.8-5.9,12-12.6,20.5-12.6c8.1,0,14.1,6,13.2,17.1
		C219.8,131.1,220.4,131.5,221.2,131.5 M184.5,89.5V41.1c0-6,4.2-7.9,8.8-8.2c1.7,0,1.9-2.5-0.4-2.5h-28.6c-2,0-2.3,2.4-0.3,2.5
		c4.3,0.5,9.4,2.7,9.4,8.2v48.5c0,5.4-2,8.9-8,8.9c-3,0-2,2,0,2h27.7c1.4,0,1.9-2.1-0.5-2.1c-6,0-8.2-3.9-8.2-8.7 M116.7,41.3
		c0-2.2-0.9-4.3-3.7-5.3c-2.4-0.9-4.6-1.1-7-1.5c-3.4-0.6-2.8-3.9,0.3-3.9c2,0,11.5,0.8,22.9,0.8c6.6,0,16-0.3,20.6-0.6
		c2.9-0.2,3.1,2.9,1.1,3.4c-2,0.6-11.4,2.9-28.3,18.3c-17.4,16-39.9,39.7-39.9,39.7s50.5,60.2,59.3,67.3c9.1,7.4,15.4,8,22.3,8.6
		c1.7,0.1,2.3,3.4,0,3.4h-39.4c0,0-48.9-59-56.9-64.5c-1.4-0.9-4.9-2-5.1,2c-0.3,3.7-0.6,35.1,0.3,41.9c0.9,6.9,3.7,16.9,20,16.9
		c2,0,3.1,3.8,0.3,3.7c-9.6-0.5-16.9-0.5-28.8-0.5c-10.3,0-24.7,0.5-26.7,0.5c-3.4,0-3.4-3.1-0.3-3.4c4.6-0.3,15.4-0.9,16.1-18.3
		c0.8-18,0.3-93.8,0-102.1c-0.1-5.7-5-13.6-17.5-13.6c-2,0-1.7-3.6,0.6-3.6h53.7c2,0,3.1,3.5-0.3,3.8c-3.4,0.3-16.5,0.8-16.9,18.2
		C63,69.9,63,97,63,98.1c0,1.4,0.6,2.9,2.6,1.5c6.2-4.2,24.6-22.2,38.3-37.6c5.4-6.1,9.1-11.4,11.7-16.4
		C116.1,44.6,116.7,43,116.7,41.3"/>
	<path d="M358.9,195.5c-1.1,0-1.4,1.7,0.1,1.7c1.7,0,5.3,0.3,5.3,5.6l-0.3,42.2c0,4.6-1.6,8.5-5.9,8.5c-1.4,0-1.4,2-0.3,2h17.6
		c1.1,0,1.1-2-0.2-2c-2.6,0-7.1-1.2-7.1-8.5l-0.4-42.9c0,0,45.1,53.4,45.4,53.4h3l0.5-51c0-5,1.8-7.8,7.8-7.8c1,0,1-1.1,0-1.1h-20
		c-1,0-1,1.1,0,1.1c2,0,8.1,0.4,8.2,7l0.5,37.3l-38.8-45.4H358.9L358.9,195.5z M304.4,224.6c0-15.4,7.1-27.3,20.3-27.3
		c11.7,0,20.6,11.3,20.6,27.3c0,19.7-8,28.4-20.6,28.4C312.4,253,304.4,241.2,304.4,224.6 M324.7,255.8c17.6,0,30.3-12.3,30.3-31.2
		c0-16.6-12.3-30-30.3-30c-17.5,0-30.1,13.7-30.1,30C294.6,242.4,306.5,255.8,324.7,255.8 M240.5,203c0-5.4,3-5.7,10.4-5.7
		c12.9,0,25.7,6.4,25.7,26.8c0,19.8-10.9,28.4-25.3,28.4h-3c-3.8,0-7.8-0.9-7.8-8.4V203z M225.4,194.6c-2,0-1.4,2.3-0.2,2.3
		c2.3,0,6.3,1.1,6.3,5.7v43c0,4.6-1.3,7.6-6.7,7.6c-1.3,0-1.6,2.3-0.3,2.3h28.7c12.6,0,33.4-6.1,33.4-31c0-25.1-17.1-29.8-33.7-29.8
		L225.4,194.6L225.4,194.6z M154.4,195.5c-1.1,0-1.4,1.7,0.1,1.7c1.7,0,5.3,0.3,5.3,5.6l-0.3,42.2c0,4.6-1.6,8.5-5.9,8.5
		c-1.4,0-1.4,2-0.3,2H171c1.1,0,1.1-2-0.2-2c-2.6,0-7-1.2-7.1-8.5l-0.4-42.9c0,0,45.1,53.4,45.4,53.4h3.1l0.2-51
		c0-5,2.5-7.8,7.5-7.8c1,0,1-1.1,0-1.1h-20c-1,0-1,1.1,0,1.1c2,0,8.3,0.4,8.4,7l0.6,37.3l-38.7-45.4L154.4,195.5L154.4,195.5z
		 M99.6,224.6c0-15.4,7.1-27.3,20.3-27.3c11.7,0,20.6,11.3,20.6,27.3c0,19.7-8,28.4-20.6,28.4C107.6,253,99.6,241.2,99.6,224.6
		 M119.9,255.8c17.6,0,30.3-12.3,30.3-31.2c0-16.6-12.3-30-30.3-30c-17.5,0-30.1,13.7-30.1,30C89.8,242.4,101.7,255.8,119.9,255.8
		 M415.5,288.5h-383v8h383V288.5L415.5,288.5z M415.5,276.5h-383v4h383V276.5L415.5,276.5z M31.5,195.5h24.4c1.2,0,1.5,1.8,0,1.8
		c-2.4,0-7.4,0.9-7.4,6V246c0,4.9,2.5,6.6,13.1,6.6c10.2,0,19.9-1.2,24.6-14.8c0.4-1.1,2.2-1,1.9,0.8L85,255.5H32.1
		c-1.8,0-1.4-2.3-0.3-2.3c3.4,0,7.6-1.7,7.6-7.9v-40.9c0-5.2-3-7.4-8-7.4C29.5,197,29.5,195.5,31.5,195.5"/>
</g>
<text transform="matrix(1 0 0 1 30.4985 382.791)"><tspan x="0" y="0" class="st0 st1">Faculty of Arts</tspan><tspan x="0" y="64" class="st0 st1">&amp; Humanities</tspan></text>
</svg>
